<svg version="1.1" id="Layer_1" xmlns="http://www.w3.org/2000/svg" xmlns:xlink="http://www.w3.org/1999/xlink" x="0px" y="0px"
	 width="100%" viewBox="0 0 91 119" enable-background="new 0 0 91 119" xml:space="preserve">
<path fill="#F2F2F2" opacity="1.000000" stroke="none" 
	d="
M1.202480,118.197502 
	C1.000000,89.645775 1.000000,61.291546 1.000000,32.468658 
	C10.895980,21.557468 21.057592,11.380544 31.753201,1.245396 
	C50.620419,1.000000 69.243225,1.156612 87.859306,0.872623 
	C91.750885,0.813257 92.086678,2.020664 92.075966,5.340433 
	C91.955788,42.580879 92.000000,79.821854 92.000000,117.531342 
	C91.458252,118.524887 90.930794,119.064156 90.197502,119.797516 
	C61.312439,120.000000 32.624878,120.000000 3.468657,120.000000 
	C2.475110,119.458252 1.935841,118.930794 1.202480,118.197502 
z"/>
<path fill="#020202" opacity="1.000000" stroke="none" 
	d="
M31.531342,1.000000 
	C32.401829,1.300879 32.751499,1.664698 32.283691,2.130229 
	C22.002518,12.361393 11.711963,22.583130 1.211600,32.403336 
	C1.000000,22.567554 1.112681,13.132836 0.922559,3.704224 
	C0.873649,1.278666 1.489533,0.896740 3.759330,0.935609 
	C12.858148,1.091421 21.961199,1.000000 31.531342,1.000000 
z"/>
<path fill="#020202" opacity="1.000000" stroke="none" 
	d="
M1.000000,118.500000 
	C3.073190,115.926910 2.730323,118.999435 3.351695,119.634674 
	C2.372586,119.588165 0.847337,120.971992 1.000000,118.500000 
z"/>
<path fill="#2A2A2A" opacity="1.000000" stroke="none" 
	d="
M90.500000,120.000000 
	C89.066635,118.429283 90.897583,118.299873 91.666611,117.721481 
	C91.588165,118.627411 92.971992,120.152664 90.500000,120.000000 
z"/>
<path fill="#020202" opacity="1.000000" stroke="none" 
	d="
M88.977112,94.999771 
	C88.977097,101.159782 88.795753,106.827690 89.039963,112.477211 
	C89.206543,116.330818 87.867661,117.872299 83.928970,117.857162 
	C59.124893,117.761795 34.320179,117.775322 9.515946,117.847458 
	C6.108039,117.857368 4.808607,116.583443 4.820594,113.137489 
	C4.906881,88.333351 4.925475,63.528465 4.796268,38.724697 
	C4.779039,35.417500 6.106812,34.905579 8.935135,34.971416 
	C15.756819,35.130199 22.585085,35.067150 29.409960,35.008217 
	C34.706135,34.962482 36.131516,33.516972 36.176289,28.143539 
	C36.234543,21.152168 36.317337,14.156601 36.132557,7.169637 
	C36.051758,4.114519 37.064289,3.111187 40.124401,3.136601 
	C54.772991,3.258257 69.423920,3.273949 84.072250,3.137520 
	C88.129143,3.099735 89.059639,4.857903 89.043762,8.600272 
	C88.922287,37.233036 88.977104,65.866554 88.977112,94.999771 
z"/>
<path fill="#050505" opacity="1.000000" stroke="none" 
	d="
M7.752802,32.305283 
	C7.267695,31.886791 7.034900,31.415901 7.148815,31.306704 
	C15.965528,22.855171 24.809471,14.432048 33.809319,5.856194 
	C33.809319,13.253491 33.853428,20.956705 33.787399,28.658974 
	C33.761341,31.698956 31.719280,32.475727 29.069752,32.461346 
	C22.102283,32.423527 15.134563,32.431797 7.752802,32.305283 
z"/>
<path fill="#E5E5E5" opacity="1.000000" stroke="none" 
	d="
M30.952715,75.936142 
	C30.952829,69.789787 31.051350,64.129883 30.912958,58.475784 
	C30.840040,55.496696 31.750780,54.724918 34.744251,55.445465 
	C39.737850,56.647457 44.815674,57.574135 49.904716,58.280319 
	C53.667011,58.802399 55.271725,60.266899 55.002529,64.355721 
	C54.610489,70.310349 54.901875,76.309982 54.901875,82.690224 
	C58.419064,82.039955 61.781300,81.124428 64.939293,83.073792 
	C68.952354,85.550972 69.117790,89.724350 65.194473,92.302887 
	C62.172913,94.288765 58.931446,94.350075 55.717281,92.784386 
	C52.825214,91.375595 51.884239,88.941818 52.057365,85.787689 
	C52.239483,82.469749 51.687923,79.070518 52.191307,75.820557 
	C53.009323,70.539238 50.948627,68.314194 45.813969,68.074310 
	C43.175804,67.951057 40.473297,67.588165 37.959892,66.814018 
	C34.701641,65.810440 33.500568,66.492332 33.847076,70.028328 
	C34.120026,72.813667 33.901909,75.647133 33.901909,78.685242 
	C37.424355,77.961815 40.636646,77.250717 43.718414,79.075386 
	C47.962505,81.588242 48.006855,86.016624 43.747921,88.539703 
	C40.618824,90.393448 37.385460,90.335930 34.261780,88.611862 
	C31.465742,87.068634 30.631948,84.509048 30.925039,81.414307 
	C31.081228,79.765121 30.952723,78.088974 30.952715,75.936142 
z"/>
<path fill="#0D0D0D" opacity="1.000000" stroke="none" 
	d="
M38.183182,58.973835 
	C42.001808,59.672295 45.385078,60.491173 48.817177,60.894375 
	C51.266506,61.182125 52.439705,62.057846 52.134369,64.628990 
	C51.762669,67.758957 49.564293,65.996246 48.371750,65.857903 
	C44.440956,65.401855 40.574974,64.374657 36.642746,63.947536 
	C33.703587,63.628284 33.576633,61.843288 33.929424,59.777008 
	C34.463806,56.647167 36.493526,59.275223 38.183182,58.973835 
z"/>
<path fill="#0A0A0A" opacity="1.000000" stroke="none" 
	d="
M35.735565,81.319244 
	C37.246288,80.959190 38.406349,80.555222 39.509819,80.674561 
	C41.272289,80.865150 43.299690,81.027283 43.951500,83.144165 
	C44.511837,84.963989 43.167534,85.967972 41.764641,86.501953 
	C39.341774,87.424156 36.798153,87.415489 34.783062,85.618126 
	C33.226536,84.229782 33.709343,82.680031 35.735565,81.319244 
z"/>
<path fill="#0A0A0A" opacity="1.000000" stroke="none" 
	d="
M59.225979,90.959579 
	C56.864540,90.421242 54.718929,89.890633 55.093819,87.258186 
	C55.330933,85.593193 56.954189,85.094040 58.464611,84.840752 
	C60.810238,84.447403 63.797951,84.191063 64.608734,86.580429 
	C66.071190,90.890274 62.352516,90.649361 59.225979,90.959579 
z"/>
</svg>